<?xml version="1.0" encoding="UTF-8"?>
<svg id="Layer_2" data-name="Layer 2" xmlns="http://www.w3.org/2000/svg" viewBox="0 0 205.16 147">
  <defs>
    <style>
      .cls-1 {
        fill: #000;
      }

      .cls-1, .cls-2, .cls-3, .cls-4 {
        stroke-width: 0px;
      }

      .cls-2 {
        fill: #f5f5f5;
      }

      .cls-3 {
        fill: #a21e35;
      }

      .cls-4 {
        fill: #898a8b;
      }
    </style>
  </defs>
  <g id="Layer_4" data-name="Layer 4">
    <rect class="cls-2" x=".27" width="204.89" height="147"/>
  </g>
  <g id="Layer_3" data-name="Layer 3">
    <g>
      <g>
        <path class="cls-1" d="M12.33,77.35v33.59M23.86,77.35v22.86M35.4,77.35v33.59M46.93,77.35v6.68M58.66,88.08v22.86"/>
        <path class="cls-3" d="M62.21,110.94h-7.08v-22.86h7.08v22.86ZM38.94,110.94h-7.08v-33.59h7.08v33.59ZM15.87,110.94h-7.08v-33.59h7.08v33.59ZM27.4,100.22h-7.08v-22.86h7.08v22.86ZM50.47,84.03h-7.08v-6.68h7.08v6.68Z"/>
      </g>
      <rect class="cls-4" x="43.39" y="88.08" width="7.08" height="22.86"/>
      <rect class="cls-3" x="55.12" y="77.35" width="18.62" height="6.68"/>
    </g>
    <rect class="cls-3" y="114.86" width="205.16" height="13.98"/>
    <g>
      <path class="cls-3" d="M205.16,40.36v.89l-1.67,4.53-.44,1.2s0,.02-.01.03h0v.02l-2.85,7.73-.31.86h0s-.03.08-.03.08c0,.02-.01.03-.03.05h0c-.03.05-.08.08-.14.1-.07.02-.15,0-.2-.05,0,0,0,0-.01,0l-.34-.33-.3-.29-1.5-1.45-.33-.31-10.91-10.58-.43-.41-1.96-1.9-.59-.57h-.01s-.42-.18-.42-.18l-.66-.27-18.46-7.56-.58-.24-.32-.13-.08.05-.71.4-11.08,6.27-.81.46-20.97,11.86-.92.52s-.06.03-.09.03l-.86.07h0s-.76.07-.76.07h-.07s-51.88,4.49-51.88,4.49l-1,.09h-.02s-.08,0-.11-.03l-.81-.46-14.68-8.36-.06-.04s-.02,0-.03-.01l-.46-.26-5.05-2.88h0l-.32-.19h0l-7.91-4.51h0l-.04-.03s-.01,0-.02-.01l-.6-.34-14.91-8.49-.64-.36-.11-.06-.25.09-.56.2-19.31,7.1h0l-.72.27s-.01,0-.02,0l-.05.02-.96.35-.43.16-5.07,1.87v-.49l4.84-1.78.44-.16.36-.13h0l.72-.27s.01,0,.02,0h.04s19.98-7.36,19.98-7.36l.91-.33c.06-.02.13-.01.19.02l.84.48,15.44,8.8.05.03s.01,0,.02,0l.6.34h0l7.56,4.31.33.19,5.23,2.98h0l.07.04s.02,0,.02,0l.46.26,14.3,8.15.17.09h0s.58.34.58.34l.44-.04.48-.05,51.19-4.42h0l.82-.07h0l.66-.06.73-.06h.12s.2-.12.2-.12l.7-.39,20.26-11.46.8-.46,11.85-6.7.82-.46c.06-.04.14-.04.2-.01l.95.39,18.61,7.63,1.03.42s.05.03.07.05l.51.5,2.34,2.27.43.41,10.61,10.29.33.31,1.49,1.45.41.4.21-.59,2.43-6.6.44-1.2s0-.02.01-.03h0s2.31-6.29,2.31-6.29c.04-.09.12-.15.21-.15Z"/>
      <path class="cls-3" d="M205.16,31.83v.46l-.98.21-16.59,10.15s-.06.03-.1.03l-.8.07-.49.05h-.11s-.81.08-.81.08l-.41.04h0l-15.67,1.41-.28.02h0l-.56.05h-.15s-.01.01-.01.01l-.13.07-.75.42-7.35,4.13-.4.22-17.06,9.57-.8.45s-.07.03-.11.03-.07,0-.11-.03l-.89-.47-14.28-7.55-.73-.39h0l-5.31-2.8-.85-.45-.88-.32-14.5-5.22-.84-.3-14.8-5.33-.78-.28-.11-.04-.34.13h0l-.56.21-14.03,5.21-.6.22-5.73,2.13-.33.12h0l-5.41,2.01-2.09.66-.59.19-17,5.32-.92.29s-.09.01-.13,0l-.93-.26-29.29-8.21-.8-.22c-.06-.01-.11-.05-.14-.1l-.55-.97-2.72-4.83-.23-.4-.3-.55-.3-.53h0s0,0,0,0L.27,29.01v-.93l4.83,8.59.3.53.14.25.22.4,2.69,4.77.43.76.07.13.48.13h0l.27.08,29.1,8.15h0l.14.04.8.22.06.02.09-.03h0l.76-.24.28-.08h0s16.31-5.12,16.31-5.12l.59-.19h0l2.49-.78,5.31-1.97.33-.12,5.4-2,.6-.22,14.51-5.38.92-.34c.05-.02.11-.02.16,0l.91.33,15.57,5.61.84.3,13.79,4.97.71.26.19.07.13.07.75.4,5.93,3.14h0l.73.39h0l1.1.59s0,0,0,0l12.56,6.64.71.37.07.04.46-.25.25-.14,17.05-9.57.39-.22,7.5-4.21.42-.24.22-.12.13-.07s.02-.01.03-.01h0s.03-.01.05-.02h.1s.18-.03.18-.03h0l.61-.05,1.12-.1,14.41-1.29.4-.04h0l.73-.06.6-.05,1.13-.1,16.58-10.14s.05-.03.07-.03l1.07-.23s.03,0,.05,0Z"/>
      <path class="cls-3" d="M205.16,43.94v.58l-2.13,2.49h0s-.86,1.01-.86,1.01l-4.55,5.34-.3.35-1.12,1.32-.36.42-.27.32s-.02.02-.03.02c-.03.03-.08.05-.12.05l-.95.11-28.26,3.27-.82.1s-.02,0-.02,0c-.05,0-.11-.02-.15-.06-.02-.01-.04-.04-.05-.06l-.1-.17-.42-.74h0s-5.11-9.02-5.11-9.02l-.22-.4-5.34-9.43-.34-.61-.07-.12h-32.13l-.24.05-.68.13-15.64,3.02-.87.17-21.59,4.16-.85.16s-.08,0-.12-.01c0,0-.01,0-.02,0l-.3-.15h0l-.66-.31-8.52-4.04-.58-.27-8.95-4.24-.63-.3h0l-.19-.09-.47.05h0l-.59.07-15.82,1.9h0l-.76.1h0l-18.69,2.24-.31.04h0l-.5.06h0s-.05,0-.07,0l-.11-.03h0l-.92-.2h-.02s-16.59-3.71-16.59-3.71l-.81-.18h0l-.51-.11-.6-.14-4.53-1.01v-.46l4.23.94h0s.6.14.6.14l1.59.35.82.18h0l15.86,3.55.95.21.12.03.24-.03.59-.07,18.02-2.16.76-.09,16.54-1.98,1.03-.12s.09,0,.12.02l.77.36,9.47,4.49.57.27,8.12,3.85.74.35.15.07.22-.04.57-.11,20.82-4.01.87-.17,16.41-3.16.96-.19h28.45s3.85,0,3.85,0c.08,0,.16.05.2.12l.04.07.27.47h0s.15.26.15.26l5.36,9.46.23.4,5.14,9.07.13.23.25.46h0s.03.05.03.05l.68-.08,28.25-3.27.2-.02.65-.08.09-.1.49-.57,1.14-1.34.3-.35,5.33-6.25h0s.86-1.01.86-1.01l1.49-1.75c.05-.05.1-.08.17-.08Z"/>
      <circle class="cls-3" cx="27.66" cy="29.56" r=".99"/>
      <circle class="cls-3" cx="24.31" cy="41.1" r=".99"/>
      <circle class="cls-3" cx="61.53" cy="36.97" r=".99"/>
      <circle class="cls-3" cx="81.45" cy="46.16" r=".99"/>
      <circle class="cls-3" cx="119.51" cy="47.42" r=".99"/>
      <circle class="cls-3" cx="128.05" cy="50.81" r=".99"/>
      <circle class="cls-3" cx="141.53" cy="59.09" r=".99"/>
      <circle class="cls-3" cx="162.7" cy="31.44" r=".99"/>
      <circle class="cls-3" cx="121.45" cy="38.51" r=".99"/>
      <circle class="cls-3" cx="153.64" cy="38.51" r=".99"/>
      <circle class="cls-3" cx="165.24" cy="59.09" r=".99"/>
      <circle class="cls-3" cx="168.22" cy="44.52" r=".99"/>
      <circle class="cls-3" cx="182.95" cy="39.85" r=".99"/>
      <circle class="cls-3" cx="195.42" cy="55.61" r=".99"/>
      <circle class="cls-3" cx="199.7" cy="55.61" r=".99"/>
      <circle class="cls-3" cx="87.49" cy="36.03" r=".99"/>
      <circle class="cls-3" cx="39.82" cy="52.39" r=".99"/>
      <circle class="cls-3" cx="73.44" cy="55.61" r=".99"/>
      <circle class="cls-3" cx="8.72" cy="43.58" r=".99"/>
      <path class="cls-3" d="M73.44,55.78s0,0-.01,0c-.05,0-.1-.03-.13-.08l-11.81-18.49-21.57,15.31c-.06.04-.14.04-.2,0l-15.38-11.17c-.06-.04-.08-.12-.06-.18l3.23-11.66c.02-.09.12-.14.21-.12.09.03.14.12.12.21l-3.19,11.55,15.19,11.03,21.61-15.34s.08-.04.13-.03c.05,0,.09.04.11.08l11.79,18.44,7.85-9.28,6.02-10.1c.05-.08.15-.11.23-.06s.11.15.06.23l-6.04,10.12-8.02,9.48s-.08.06-.13.06Z"/>
      <path class="cls-3" d="M128.05,50.98c-.06,0-.12-.03-.15-.09l-6.38-11.89-1.84,8.46c-.02.09-.11.15-.2.13-.09-.02-.15-.11-.13-.2l1.94-8.91c.02-.07.07-.12.14-.13.07-.01.14.03.17.09l6.6,12.3c.04.08.01.19-.07.23-.03.01-.05.02-.08.02Z"/>
      <path class="cls-3" d="M165.24,59.26s-.02,0-.03,0c-.09-.02-.15-.11-.13-.2l2.97-14.57c.02-.09.11-.15.2-.13.09.02.15.11.13.2l-2.97,14.57c-.02.08-.09.14-.17.14Z"/>
      <path class="cls-3" d="M141.53,59.26s-.06,0-.09-.02c-.08-.05-.11-.15-.06-.23l12.11-20.57c.04-.07.13-.1.21-.07l14.41,5.66,14.78-4.33c.09-.03.19.03.21.12.03.09-.03.19-.12.21l-14.84,4.35s-.08,0-.11,0l-14.33-5.63-12.04,20.45c-.03.05-.09.08-.15.08Z"/>
      <path class="cls-3" d="M195.42,55.78s-.04,0-.07-.01l-27.31-11.41s-.07-.05-.09-.09l-5.41-12.76c-.04-.09,0-.19.09-.22.09-.04.19,0,.22.09l5.39,12.7,26.62,11.13-12.33-15.15c-.06-.07-.05-.18.02-.24.07-.06.18-.05.24.02l12.76,15.68c.05.06.05.15,0,.21-.03.04-.08.07-.14.07Z"/>
      <path class="cls-3" d="M199.7,55.78h-4.28c-.09,0-.17-.08-.17-.17s.08-.17.17-.17h4.28c.09,0,.17.08.17.17s-.08.17-.17.17Z"/>
      <path class="cls-3" d="M8.72,43.75c-.08,0-.16-.06-.17-.15-.01-.09.05-.18.14-.19l15.72-2.36c.1-.02.18.05.19.14.01.09-.05.18-.14.19l-15.72,2.36s-.02,0-.03,0Z"/>
    </g>
    <path class="cls-3" d="M91.77,83.29c0,2.58-1.72,3.22-4.75,3.22-5.11,0-5.11-2.83-5.11-3.84h2.32c0,1.57,1.38,1.81,2.73,1.81,1.71,0,2.42-.39,2.42-1.2,0-.71-.71-.83-2.74-1.13-3.1-.46-4.5-1.1-4.5-3,0-1.47,1.08-3.16,4.47-3.16,4.03,0,4.83,2.25,4.83,3.84h-2.37c0-.72-.32-1.79-2.47-1.79-1.75,0-2.14.63-2.14,1.13,0,.55.61.76,2.35,1.04,2.33.38,4.97.72,4.97,3.07Z"/>
    <path class="cls-3" d="M99.61,76.13h2.35v5.59c0,1.42,0,4.78-4.69,4.78s-4.69-3.19-4.69-4.79v-5.59h2.26v5.33c0,1.56.07,2.99,2.43,2.99s2.34-1.85,2.34-2.99,0-5.33,0-5.33Z"/>
    <path class="cls-3" d="M114.93,76.13v10.38h-2.26v-7.73h-.22l-1.98,7.73h-3.24l-1.98-7.73h-.22v7.73h-2.26v-10.38h3.32s.55.01.55.01l2.07,8.3h.21l2.07-8.3h.7s3.24-.01,3.24-.01Z"/>
    <path class="cls-3" d="M127.95,76.13v10.38h-2.26v-7.73h-.22l-1.98,7.73h-3.24l-1.98-7.73h-.22v7.73h-2.26v-10.38h3.32s.55.01.55.01l2.07,8.3h.21l2.07-8.3h.7s3.24-.01,3.24-.01Z"/>
    <path class="cls-3" d="M137.36,76.13v2.04h-6.27v2.13h6.27v2.04h-6.27v2.1h6.27v2.07h-6.27s-2.26,0-2.26,0v-10.38h8.53Z"/>
    <path class="cls-3" d="M145.55,82.52l1.98,3.99h-2.45l-1.68-3.47c-.22.01-.42.01-.56.01h-2.39v3.46h-2.26v-10.38h2.26c.55,0,2.19,0,2.81,0,1.25,0,4.02,0,4.02,3.47,0,1.79-.8,2.44-1.73,2.93ZM145.19,79.59c0-1.44-1.36-1.44-2.06-1.44h-2.67v2.88h2.63c.64,0,2.1,0,2.1-1.44Z"/>
    <path class="cls-3" d="M92.46,93.19v5.94h-2.26v-1.62h-.12c-.36.93-1.35,1.7-2.88,1.7-2.98,0-5.39-1.8-5.39-5.27s2.41-5.27,5.39-5.27c2.69,0,4.79,1.5,5.19,3.49h-2.47c-.43-.8-1.3-1.19-2.73-1.19-1.77,0-3.14.91-3.14,2.97s1.37,2.97,3.14,2.97,2.6-.61,2.89-1.61h-2.96v-2.12h5.33Z"/>
    <path class="cls-3" d="M101.8,88.83v2.04h-6.27v2.13h6.27v2.04h-6.27v2.1h6.27v2.07h-6.27s-2.26,0-2.26,0v-10.38h8.53Z"/>
    <path class="cls-3" d="M112.98,93.94c0,3.41-2.31,5.27-5.33,5.27s-5.33-1.8-5.33-5.27,2.31-5.27,5.33-5.27,5.33,1.86,5.33,5.27ZM110.77,93.94c0-2.03-1.32-2.97-3.12-2.97s-3.12.91-3.12,2.97,1.32,2.97,3.12,2.97,3.12-.98,3.12-2.97Z"/>
    <path class="cls-3" d="M125.96,88.83v10.38h-2.26v-7.73h-.22l-1.98,7.73h-3.24l-1.98-7.73h-.22v7.73h-2.26v-10.38h3.32s.55.01.55.01l2.07,8.3h.21l2.07-8.3h.7s3.24-.01,3.24-.01Z"/>
    <path class="cls-3" d="M135.37,88.83v2.04h-6.27v2.13h6.27v2.04h-6.27v2.1h6.27v2.07h-6.27s-2.26,0-2.26,0v-10.38h8.53Z"/>
    <path class="cls-3" d="M136.2,88.83h10.1v2.06h-3.92v8.32h-2.26v-8.32h-3.92v-2.06Z"/>
    <path class="cls-3" d="M154.34,95.23l1.98,3.99h-2.45l-1.68-3.47c-.22.01-.42.01-.56.01h-2.39v3.46h-2.26v-10.38h2.26c.55,0,2.19,0,2.81,0,1.25,0,4.02,0,4.02,3.47,0,1.79-.8,2.44-1.73,2.93ZM153.98,92.29c0-1.44-1.36-1.44-2.06-1.44h-2.67v2.88h2.63c.64,0,2.1,0,2.1-1.44Z"/>
    <path class="cls-3" d="M166.35,88.84l-4.35,6.92v3.45h-2.26v-3.4l-4.38-6.97h2.55l2.82,4.73h.25l2.82-4.73h2.55Z"/>
    <path class="cls-3" d="M82.01,112.29v-10.38h2.26v10.38h-2.26Z"/>
    <path class="cls-3" d="M93.21,101.91h2.26v10.38h-3.25l-4.55-7.45h-.26v7.45h-2.26v-10.38h3.05s.2.01.2.01l4.54,7.44h.27v-7.45Z"/>
    <path class="cls-3" d="M96.43,112.29v-10.38h2.26v10.38h-2.26Z"/>
    <path class="cls-3" d="M99.49,101.91h10.1v2.06h-3.92v8.32h-2.26v-8.32h-3.92v-2.06Z"/>
    <path class="cls-3" d="M110.39,112.29v-10.38h2.26v10.38h-2.26Z"/>
    <path class="cls-3" d="M124.37,112.29h-2.34l-.61-1.71h-5.3l-.61,1.71h-2.34l3.71-10.37h3.78l3.71,10.37ZM120.68,108.52l-1.63-4.55h-.57l-1.63,4.55h3.83Z"/>
    <path class="cls-3" d="M122.51,101.91h10.1v2.06h-3.92v8.32h-2.26v-8.32h-3.92v-2.06Z"/>
    <path class="cls-3" d="M133.41,112.29v-10.38h2.26v10.38h-2.26Z"/>
    <path class="cls-3" d="M144.76,101.91h2.62l-3.75,10.38h-3.64l-3.75-10.38h2.62l2.83,8.31h.23l2.83-8.31Z"/>
    <path class="cls-3" d="M156.41,101.91v2.04h-6.27v2.13h6.27v2.04h-6.27v2.1h6.27v2.07h-6.27s-2.26,0-2.26,0v-10.38h8.53Z"/>
  </g>
</svg>