<?xml version="1.0" encoding="UTF-8"?>
<svg id="Layer_2" data-name="Layer 2" xmlns="http://www.w3.org/2000/svg" viewBox="0 0 450.78 323">
  <defs>
    <style>
      .cls-1 {
        fill: #000;
      }

      .cls-1, .cls-2, .cls-3, .cls-4 {
        stroke-width: 0px;
      }

      .cls-2 {
        fill: #f5f5f5;
      }

      .cls-3 {
        fill: #a21e35;
      }

      .cls-4 {
        fill: #898a8b;
      }
    </style>
  </defs>
  <g id="Layer_4" data-name="Layer 4">
    <rect class="cls-2" x=".59" width="450.19" height="323"/>
  </g>
  <g id="Layer_3" data-name="Layer 3">
    <g>
      <g>
        <path class="cls-1" d="M27.09,169.97v73.8M52.43,169.97v50.24M77.77,169.97v73.8M103.12,169.97v14.67M128.9,193.53v50.24"/>
        <path class="cls-3" d="M136.68,243.77h-15.56v-50.24h15.56v50.24ZM85.55,243.77h-15.56v-73.8h15.56v73.8ZM34.87,243.77h-15.56v-73.8h15.56v73.8ZM60.21,220.21h-15.56v-50.24h15.56v50.24ZM110.9,184.64h-15.56v-14.67h15.56v14.67Z"/>
      </g>
      <rect class="cls-4" x="95.34" y="193.53" width="15.56" height="50.24"/>
      <rect class="cls-3" x="121.12" y="169.97" width="40.9" height="14.67"/>
    </g>
    <rect class="cls-3" y="252.38" width="450.78" height="30.72"/>
    <g>
      <path class="cls-3" d="M450.78,88.68v1.95l-3.66,9.95-.97,2.63s-.02.04-.03.06v.03s0,.01,0,.01l-6.26,16.98-.69,1.9h0s-.07.18-.07.18c-.01.04-.03.07-.06.1h0c-.07.11-.18.18-.3.21-.16.04-.32,0-.43-.11-.01,0-.02-.01-.03-.02l-.75-.73-.65-.63-3.29-3.19-.72-.69-23.98-23.25-.94-.91-4.3-4.17-1.29-1.25h-.03s-.92-.39-.92-.39l-1.44-.59-40.57-16.62-1.27-.52-.71-.29-.18.1-1.56.88-24.35,13.77-1.77,1-46.08,26.05-2.03,1.15c-.06.03-.13.06-.2.06l-1.88.16h-.02s-1.67.15-1.67.15h-.15s-113.99,9.86-113.99,9.86l-2.2.19h-.04c-.09,0-.17-.02-.25-.06l-1.77-1.01-32.25-18.37-.14-.08s-.04-.02-.06-.03l-1-.57-11.1-6.32h0l-.71-.41h0l-17.39-9.91h0l-.09-.06s-.03-.02-.05-.03l-1.31-.75-32.76-18.66-1.4-.8-.25-.14-.55.2-1.23.45-42.43,15.61h-.01l-1.58.59s-.03.01-.05.01l-.1.04-2.11.77-.95.35-11.13,4.11v-1.07l10.63-3.91.96-.36.8-.29h0l1.59-.59s.03,0,.05-.02l.08-.03,43.9-16.15,1.99-.73c.14-.05.29-.03.42.04l1.85,1.05,33.93,19.33.1.06s.03,0,.05.02l1.32.75h0l16.61,9.48.72.41,11.5,6.55h0l.15.09s.04.02.05.02l1,.57,31.43,17.9.37.2h.01s1.27.74,1.27.74l.97-.08,1.06-.1,112.47-9.71h0l1.81-.15h.01l1.45-.13,1.6-.14.27-.02.43-.25,1.53-.86,44.52-25.17,1.76-1,26.03-14.72,1.81-1.02c.14-.08.3-.09.44-.03l2.09.85,40.9,16.76,2.26.93c.06.02.12.06.16.1l1.13,1.1,5.15,4.99.94.91,23.31,22.61.72.69,3.28,3.19.9.87.47-1.29,5.35-14.5.97-2.64s.02-.04.03-.06v-.02s0-.01,0-.01l5.07-13.78c.08-.2.27-.33.47-.32Z"/>
      <path class="cls-3" d="M450.78,69.94v1.01l-2.16.46-36.46,22.31c-.06.04-.14.07-.21.07l-1.75.15-1.08.1-.24.02-1.79.16-.89.08h0l-34.43,3.1-.61.05h-.01l-1.24.12h-.01l-.33.03h-.03l-.28.16-1.64.92-16.16,9.07-.87.49-37.49,21.03-1.76.99c-.07.05-.16.07-.24.07s-.16-.02-.24-.06l-1.96-1.04-31.37-16.58-1.61-.86h0l-11.67-6.16-1.87-.99-1.93-.7-31.87-11.48-1.84-.66-32.51-11.71-1.72-.62-.24-.09-.75.28h0l-1.23.46-30.83,11.44-1.31.49-12.58,4.67-.72.27h0l-11.89,4.41-4.6,1.44-1.3.41-37.36,11.7-2.02.63c-.09.03-.19.03-.29.01l-2.04-.57-64.36-18.03-1.75-.49c-.13-.03-.24-.12-.3-.23l-1.2-2.14-5.98-10.62-.5-.87-.67-1.2-.66-1.16h0s0-.01,0-.01L.59,63.75v-2.05l10.62,18.87.66,1.17.31.54.49.88,5.9,10.49.94,1.67.16.28,1.05.29h.01l.59.17,63.95,17.9h0l.31.09,1.75.49.14.04.19-.06h0l1.68-.53.61-.18h.02s35.83-11.24,35.83-11.24l1.29-.41h0l5.47-1.71,11.67-4.33.72-.27,11.87-4.4,1.32-.49,31.88-11.83,2.02-.75c.12-.04.24-.04.35,0l1.99.72,34.22,12.33,1.84.66,30.3,10.92,1.57.57.42.15.29.15,1.64.87,13.03,6.89h.01l1.61.85h.02l2.42,1.29s0,.01,0,0l27.59,14.58,1.55.82.15.08,1-.56.54-.3,37.47-21.03.86-.49,16.49-9.25.92-.52.49-.27.28-.16s.04-.03.07-.03h.01s.07-.03.12-.04l.23-.02.4-.04h0l1.34-.12,2.47-.22,31.66-2.84.89-.08h.01l1.6-.14,1.32-.12,2.48-.22,36.43-22.29s.1-.06.16-.07l2.35-.5s.07-.01.1-.01Z"/>
      <path class="cls-3" d="M450.78,96.55v1.28l-4.67,5.47h0s-1.88,2.21-1.88,2.21l-10,11.73-.65.76-2.46,2.89-.79.93-.6.7s-.04.04-.06.05c-.07.07-.17.11-.26.12l-2.08.24-62.09,7.18-1.81.21s-.04,0-.05,0c-.12,0-.24-.05-.33-.13-.04-.03-.08-.08-.11-.13l-.22-.38-.92-1.62h0s-11.22-19.83-11.22-19.83l-.49-.87-11.73-20.71-.75-1.33-.15-.26h-70.59l-.53.1-1.5.29-34.37,6.63-1.91.37-47.44,9.15-1.86.36c-.09.02-.18,0-.26-.03,0,0-.03,0-.04-.01l-.66-.32h-.01l-1.46-.69-18.71-8.87-1.27-.6-19.66-9.32-1.39-.66h-.01l-.41-.2-1.03.12h0l-1.3.16-34.76,4.17h0l-1.67.21h0l-41.07,4.93-.68.08h-.01l-1.09.13h0c-.05,0-.1,0-.16-.01l-.24-.06h0l-2.03-.45h-.05s-36.46-8.16-36.46-8.16l-1.79-.4h0l-1.11-.25-1.32-.3-9.96-2.22v-1.02l9.29,2.07h0s1.32.3,1.32.3l3.5.78,1.8.4h.01l34.85,7.79,2.08.46.26.06.53-.06,1.3-.16,39.6-4.75,1.66-.2,36.34-4.36,2.27-.27c.09-.01.19,0,.27.04l1.69.8,20.8,9.86,1.26.6,17.85,8.46,1.62.77.34.16.49-.09,1.25-.24,45.74-8.82,1.91-.37,36.05-6.94,2.1-.41h62.51s8.46,0,8.46,0c.18,0,.35.1.43.26l.09.15.59,1.04h0s.32.58.32.58l11.77,20.78.5.87,11.29,19.93.29.51.56,1h0s.06.1.06.1l1.49-.17,62.08-7.18.45-.05,1.43-.17.19-.22,1.07-1.25,2.5-2.94.65-.76,11.72-13.74v-.02s0-.01,0-.01l1.88-2.2,3.28-3.85c.1-.12.23-.18.38-.18Z"/>
      <circle class="cls-3" cx="60.78" cy="64.95" r="2.18"/>
      <circle class="cls-3" cx="53.42" cy="90.3" r="2.18"/>
      <circle class="cls-3" cx="135.2" cy="81.24" r="2.18"/>
      <circle class="cls-3" cx="178.96" cy="101.42" r="2.18"/>
      <circle class="cls-3" cx="262.59" cy="104.2" r="2.18"/>
      <circle class="cls-3" cx="281.36" cy="111.65" r="2.18"/>
      <circle class="cls-3" cx="310.98" cy="129.83" r="2.18"/>
      <circle class="cls-3" cx="357.49" cy="69.08" r="2.18"/>
      <circle class="cls-3" cx="266.85" cy="84.62" r="2.18"/>
      <circle class="cls-3" cx="337.6" cy="84.62" r="2.18"/>
      <circle class="cls-3" cx="363.09" cy="129.83" r="2.18"/>
      <circle class="cls-3" cx="369.62" cy="97.81" r="2.18"/>
      <circle class="cls-3" cx="401.98" cy="87.56" r="2.18"/>
      <circle class="cls-3" cx="429.38" cy="122.2" r="2.18"/>
      <circle class="cls-3" cx="438.79" cy="122.2" r="2.18"/>
      <circle class="cls-3" cx="192.23" cy="79.18" r="2.18"/>
      <circle class="cls-3" cx="87.5" cy="115.11" r="2.18"/>
      <circle class="cls-3" cx="161.37" cy="122.2" r="2.18"/>
      <circle class="cls-3" cx="19.16" cy="95.75" r="2.18"/>
      <path class="cls-3" d="M161.37,122.57s-.02,0-.03,0c-.12,0-.23-.07-.29-.17l-25.96-40.62-47.39,33.64c-.13.09-.31.09-.44,0l-33.8-24.54c-.13-.09-.18-.25-.14-.4l7.09-25.63c.05-.2.26-.32.46-.26.2.06.32.26.26.46l-7.02,25.38,33.38,24.23,47.49-33.71c.08-.06.19-.08.29-.06.1.02.19.08.25.17l25.9,40.52,17.26-20.39,13.24-22.19c.11-.18.34-.24.51-.13s.24.34.13.51l-13.27,22.24-17.62,20.83c-.07.08-.18.13-.29.13Z"/>
      <path class="cls-3" d="M281.36,112.02c-.13,0-.26-.07-.33-.2l-14.03-26.13-4.04,18.59c-.04.2-.24.33-.45.29-.2-.04-.33-.24-.29-.45l4.26-19.58c.03-.15.16-.27.31-.29.15-.02.31.06.38.19l14.51,27.02c.1.18.03.41-.15.51-.06.03-.12.04-.18.04Z"/>
      <path class="cls-3" d="M363.09,130.2s-.05,0-.08,0c-.2-.04-.33-.24-.29-.44l6.53-32.02c.04-.2.23-.34.44-.29.2.04.33.24.29.44l-6.53,32.02c-.04.18-.19.3-.37.3Z"/>
      <path class="cls-3" d="M310.98,130.2c-.07,0-.13-.02-.19-.05-.18-.1-.24-.33-.13-.51l26.61-45.21c.09-.16.29-.23.46-.16l31.67,12.44,32.48-9.52c.2-.06.41.06.47.25.06.2-.06.41-.25.47l-32.6,9.55c-.08.02-.17.02-.24-.01l-31.49-12.37-26.45,44.93c-.07.12-.2.18-.32.18Z"/>
      <path class="cls-3" d="M429.38,122.57s-.1,0-.14-.03l-60-25.08c-.09-.04-.16-.11-.2-.2l-11.89-28.04c-.08-.19,0-.41.2-.49.19-.08.41,0,.49.2l11.83,27.9,58.48,24.45-27.09-33.29c-.13-.16-.11-.4.05-.53.16-.13.4-.11.53.05l28.04,34.45c.11.13.11.32,0,.46-.07.1-.19.15-.3.15Z"/>
      <path class="cls-3" d="M438.79,122.57h-9.41c-.21,0-.38-.17-.38-.38s.17-.38.38-.38h9.41c.21,0,.38.17.38.38s-.17.38-.38.38Z"/>
      <path class="cls-3" d="M19.16,96.13c-.18,0-.34-.13-.37-.32-.03-.21.11-.4.32-.43l34.53-5.18c.21-.03.4.11.43.31.03.21-.11.4-.32.43l-34.53,5.18s-.04,0-.06,0Z"/>
    </g>
    <path class="cls-3" d="M201.65,183c0,5.66-3.77,7.08-10.44,7.08-11.24,0-11.23-6.23-11.23-8.43h5.09c0,3.44,3.03,3.98,5.99,3.98,3.75,0,5.31-.86,5.31-2.63,0-1.55-1.56-1.82-6.03-2.48-6.81-1-9.88-2.42-9.88-6.59,0-3.22,2.38-6.94,9.82-6.94,8.85,0,10.62,4.95,10.62,8.43h-5.2c0-1.58-.7-3.93-5.42-3.93-3.84,0-4.71,1.39-4.71,2.49,0,1.21,1.34,1.66,5.16,2.28,5.11.83,10.92,1.58,10.92,6.74Z"/>
    <path class="cls-3" d="M218.88,167.28h5.16v12.29c0,3.11,0,10.51-10.3,10.51s-10.3-7.01-10.3-10.53v-12.28h4.96v11.71c0,3.43.15,6.56,5.34,6.56s5.14-4.07,5.14-6.56,0-11.71,0-11.71Z"/>
    <path class="cls-3" d="M252.53,167.28v22.8h-4.96v-16.97h-.48l-4.35,16.97h-7.13l-4.35-16.97h-.48v16.97h-4.96v-22.8h7.3v.02h1.2l4.54,18.24h.45l4.54-18.24h1.53v-.02h7.13Z"/>
    <path class="cls-3" d="M281.14,167.28v22.8h-4.96v-16.97h-.48l-4.35,16.97h-7.13l-4.35-16.97h-.48v16.97h-4.96v-22.8h7.3v.02h1.2l4.54,18.24h.45l4.54-18.24h1.53v-.02h7.13Z"/>
    <path class="cls-3" d="M301.81,167.28v4.48h-13.78v4.68h13.78v4.48h-13.78v4.62h13.78v4.54h-13.78s-4.96,0-4.96,0v-22.8h18.74Z"/>
    <path class="cls-3" d="M319.81,181.33l4.35,8.76h-5.38l-3.69-7.62c-.49.02-.91.03-1.22.03h-5.25v7.59h-4.96v-22.8h4.96v.02c1.21,0,4.81-.02,6.17-.02,2.74,0,8.83,0,8.83,7.62,0,3.94-1.75,5.36-3.8,6.43ZM319.02,174.89c0-3.17-2.99-3.17-4.53-3.17h-5.86v6.34h5.78c1.41,0,4.61.02,4.61-3.17Z"/>
    <path class="cls-3" d="M203.16,204.76v13.05h-4.96v-3.55h-.27c-.8,2.05-2.97,3.74-6.33,3.74-6.55,0-11.85-3.95-11.85-11.59s5.31-11.59,11.85-11.59c5.91,0,10.53,3.3,11.41,7.67h-5.42c-.94-1.76-2.86-2.61-5.99-2.61-3.9,0-6.9,2-6.9,6.53s3,6.53,6.9,6.53,5.7-1.34,6.36-3.53h-6.51v-4.65h11.71Z"/>
    <path class="cls-3" d="M223.68,195.19v4.48h-13.78v4.68h13.78v4.48h-13.78v4.62h13.78v4.54h-13.78s-4.96,0-4.96,0v-22.8h18.74Z"/>
    <path class="cls-3" d="M248.26,206.41c0,7.5-5.07,11.59-11.71,11.59s-11.71-3.95-11.71-11.59,5.07-11.59,11.71-11.59,11.71,4.09,11.71,11.59ZM243.4,206.41c0-4.46-2.9-6.53-6.85-6.53s-6.85,2-6.85,6.53,2.9,6.53,6.85,6.53,6.85-2.15,6.85-6.53Z"/>
    <path class="cls-3" d="M276.77,195.19v22.8h-4.96v-16.97h-.48l-4.35,16.97h-7.13l-4.35-16.97h-.48v16.97h-4.96v-22.8h7.3v.02h1.2l4.54,18.24h.45l4.54-18.24h1.53v-.02h7.13Z"/>
    <path class="cls-3" d="M297.44,195.19v4.48h-13.78v4.68h13.78v4.48h-13.78v4.62h13.78v4.54h-13.78s-4.96,0-4.96,0v-22.8h18.74Z"/>
    <path class="cls-3" d="M299.26,195.19h22.19v4.53h-8.62v18.28h-4.96v-18.28h-8.62v-4.53Z"/>
    <path class="cls-3" d="M339.13,209.24l4.35,8.76h-5.38l-3.69-7.62c-.49.02-.91.03-1.22.03h-5.25v7.59h-4.96v-22.8h4.96v.02c1.21,0,4.81-.02,6.17-.02,2.74,0,8.83,0,8.83,7.62,0,3.94-1.75,5.36-3.8,6.43ZM338.33,202.8c0-3.17-2.99-3.17-4.53-3.17h-5.86v6.34h5.78c1.41,0,4.61.02,4.61-3.17Z"/>
    <path class="cls-3" d="M365.53,195.21l-9.55,15.21v7.57h-4.96v-7.47l-9.63-15.31h5.6l6.2,10.39h.54l6.2-10.39h5.6Z"/>
    <path class="cls-3" d="M180.21,246.72v-22.8h4.96v22.8h-4.96Z"/>
    <path class="cls-3" d="M204.82,223.92h4.96v22.8h-7.14l-9.99-16.36h-.57v16.36h-4.96v-22.8h6.7v.02h.44l9.98,16.34h.58v-16.36Z"/>
    <path class="cls-3" d="M211.87,246.72v-22.8h4.96v22.8h-4.96Z"/>
    <path class="cls-3" d="M218.62,223.92h22.19v4.53h-8.62v18.28h-4.96v-18.28h-8.62v-4.53Z"/>
    <path class="cls-3" d="M242.57,246.72v-22.8h4.96v22.8h-4.96Z"/>
    <path class="cls-3" d="M273.28,246.72h-5.14l-1.35-3.76h-11.65l-1.35,3.76h-5.14l8.16-22.78h8.31l8.16,22.78ZM265.17,238.44l-3.58-10h-1.25l-3.58,10h8.41Z"/>
    <path class="cls-3" d="M269.19,223.92h22.19v4.53h-8.62v18.28h-4.96v-18.28h-8.62v-4.53Z"/>
    <path class="cls-3" d="M293.13,246.72v-22.8h4.96v22.8h-4.96Z"/>
    <path class="cls-3" d="M318.09,223.92h5.75l-8.23,22.8h-7.99l-8.23-22.8h5.75l6.23,18.27h.49l6.23-18.27Z"/>
    <path class="cls-3" d="M343.68,223.92v4.48h-13.78v4.68h13.78v4.48h-13.78v4.62h13.78v4.54h-13.78s-4.96,0-4.96,0v-22.8h18.74Z"/>
  </g>
</svg>